%TF.GenerationSoftware,KiCad,Pcbnew,9.0.3*%
%TF.CreationDate,2025-08-25T20:13:08-03:00*%
%TF.ProjectId,ups_lead_acid_electgpl_v1.0,7570735f-6c65-4616-945f-616369645f65,rev?*%
%TF.SameCoordinates,Original*%
%TF.FileFunction,Soldermask,Bot*%
%TF.FilePolarity,Negative*%
%FSLAX46Y46*%
G04 Gerber Fmt 4.6, Leading zero omitted, Abs format (unit mm)*
G04 Created by KiCad (PCBNEW 9.0.3) date 2025-08-25 20:13:08*
%MOMM*%
%LPD*%
G01*
G04 APERTURE LIST*
G04 Aperture macros list*
%AMRoundRect*
0 Rectangle with rounded corners*
0 $1 Rounding radius*
0 $2 $3 $4 $5 $6 $7 $8 $9 X,Y pos of 4 corners*
0 Add a 4 corners polygon primitive as box body*
4,1,4,$2,$3,$4,$5,$6,$7,$8,$9,$2,$3,0*
0 Add four circle primitives for the rounded corners*
1,1,$1+$1,$2,$3*
1,1,$1+$1,$4,$5*
1,1,$1+$1,$6,$7*
1,1,$1+$1,$8,$9*
0 Add four rect primitives between the rounded corners*
20,1,$1+$1,$2,$3,$4,$5,0*
20,1,$1+$1,$4,$5,$6,$7,0*
20,1,$1+$1,$6,$7,$8,$9,0*
20,1,$1+$1,$8,$9,$2,$3,0*%
G04 Aperture macros list end*
%ADD10C,2.600000*%
%ADD11C,0.800000*%
%ADD12C,6.400000*%
%ADD13R,2.000000X4.600000*%
%ADD14O,2.000000X4.200000*%
%ADD15O,4.200000X2.000000*%
%ADD16RoundRect,0.250001X0.799999X-0.799999X0.799999X0.799999X-0.799999X0.799999X-0.799999X-0.799999X0*%
%ADD17C,2.100000*%
%ADD18RoundRect,0.250001X-0.799999X0.799999X-0.799999X-0.799999X0.799999X-0.799999X0.799999X0.799999X0*%
G04 APERTURE END LIST*
D10*
%TO.C,TP11*%
X121560000Y-125742500D03*
X126640000Y-125742500D03*
%TD*%
D11*
%TO.C,H1*%
X129702944Y-78445444D03*
X130405888Y-76748388D03*
X130405888Y-80142500D03*
X132102944Y-76045444D03*
D12*
X132102944Y-78445444D03*
D11*
X132102944Y-80845444D03*
X133800000Y-76748388D03*
X133800000Y-80142500D03*
X134502944Y-78445444D03*
%TD*%
D13*
%TO.C,J1*%
X163450000Y-87692500D03*
D14*
X169750000Y-87692500D03*
D15*
X166350000Y-82892500D03*
%TD*%
D10*
%TO.C,TP10*%
X121560000Y-81742500D03*
X126640000Y-81742500D03*
%TD*%
D16*
%TO.C,J2*%
X172842500Y-101587500D03*
D17*
X172842500Y-96507500D03*
%TD*%
D11*
%TO.C,H3*%
X129700000Y-129042500D03*
X130402944Y-127345444D03*
X130402944Y-130739556D03*
X132100000Y-126642500D03*
D12*
X132100000Y-129042500D03*
D11*
X132100000Y-131442500D03*
X133797056Y-127345444D03*
X133797056Y-130739556D03*
X134500000Y-129042500D03*
%TD*%
D16*
%TO.C,J4*%
X172842500Y-122142500D03*
D17*
X172842500Y-117062500D03*
%TD*%
D11*
%TO.C,H4*%
X171600000Y-129042500D03*
X172302944Y-127345444D03*
X172302944Y-130739556D03*
X174000000Y-126642500D03*
D12*
X174000000Y-129042500D03*
D11*
X174000000Y-131442500D03*
X175697056Y-127345444D03*
X175697056Y-130739556D03*
X176400000Y-129042500D03*
%TD*%
%TO.C,H2*%
X171600000Y-78442500D03*
X172302944Y-76745444D03*
X172302944Y-80139556D03*
X174000000Y-76042500D03*
D12*
X174000000Y-78442500D03*
D11*
X174000000Y-80842500D03*
X175697056Y-76745444D03*
X175697056Y-80139556D03*
X176400000Y-78442500D03*
%TD*%
D18*
%TO.C,J3*%
X124557500Y-88197500D03*
D17*
X124557500Y-93277500D03*
%TD*%
M02*
