%TF.GenerationSoftware,KiCad,Pcbnew,9.0.3*%
%TF.CreationDate,2025-08-25T20:13:08-03:00*%
%TF.ProjectId,ups_lead_acid_electgpl_v1.0,7570735f-6c65-4616-945f-616369645f65,rev?*%
%TF.SameCoordinates,Original*%
%TF.FileFunction,Soldermask,Top*%
%TF.FilePolarity,Negative*%
%FSLAX46Y46*%
G04 Gerber Fmt 4.6, Leading zero omitted, Abs format (unit mm)*
G04 Created by KiCad (PCBNEW 9.0.3) date 2025-08-25 20:13:08*
%MOMM*%
%LPD*%
G01*
G04 APERTURE LIST*
G04 Aperture macros list*
%AMRoundRect*
0 Rectangle with rounded corners*
0 $1 Rounding radius*
0 $2 $3 $4 $5 $6 $7 $8 $9 X,Y pos of 4 corners*
0 Add a 4 corners polygon primitive as box body*
4,1,4,$2,$3,$4,$5,$6,$7,$8,$9,$2,$3,0*
0 Add four circle primitives for the rounded corners*
1,1,$1+$1,$2,$3*
1,1,$1+$1,$4,$5*
1,1,$1+$1,$6,$7*
1,1,$1+$1,$8,$9*
0 Add four rect primitives between the rounded corners*
20,1,$1+$1,$2,$3,$4,$5,0*
20,1,$1+$1,$4,$5,$6,$7,0*
20,1,$1+$1,$6,$7,$8,$9,0*
20,1,$1+$1,$8,$9,$2,$3,0*%
G04 Aperture macros list end*
%ADD10RoundRect,0.200000X-0.275000X0.200000X-0.275000X-0.200000X0.275000X-0.200000X0.275000X0.200000X0*%
%ADD11RoundRect,0.200000X-0.200000X-0.275000X0.200000X-0.275000X0.200000X0.275000X-0.200000X0.275000X0*%
%ADD12RoundRect,0.225000X-0.250000X0.225000X-0.250000X-0.225000X0.250000X-0.225000X0.250000X0.225000X0*%
%ADD13RoundRect,0.250000X-1.400000X-1.000000X1.400000X-1.000000X1.400000X1.000000X-1.400000X1.000000X0*%
%ADD14RoundRect,0.200000X0.275000X-0.200000X0.275000X0.200000X-0.275000X0.200000X-0.275000X-0.200000X0*%
%ADD15RoundRect,0.200000X0.200000X0.275000X-0.200000X0.275000X-0.200000X-0.275000X0.200000X-0.275000X0*%
%ADD16RoundRect,0.250000X0.712500X2.475000X-0.712500X2.475000X-0.712500X-2.475000X0.712500X-2.475000X0*%
%ADD17RoundRect,0.218750X-0.256250X0.218750X-0.256250X-0.218750X0.256250X-0.218750X0.256250X0.218750X0*%
%ADD18RoundRect,0.150000X-0.150000X0.587500X-0.150000X-0.587500X0.150000X-0.587500X0.150000X0.587500X0*%
%ADD19C,2.600000*%
%ADD20C,0.800000*%
%ADD21C,6.400000*%
%ADD22R,0.510000X1.100000*%
%ADD23RoundRect,0.150000X-0.150000X0.825000X-0.150000X-0.825000X0.150000X-0.825000X0.150000X0.825000X0*%
%ADD24R,1.000000X1.500000*%
%ADD25RoundRect,0.375000X0.625000X0.375000X-0.625000X0.375000X-0.625000X-0.375000X0.625000X-0.375000X0*%
%ADD26RoundRect,0.500000X0.500000X1.400000X-0.500000X1.400000X-0.500000X-1.400000X0.500000X-1.400000X0*%
%ADD27RoundRect,0.150000X0.650000X0.150000X-0.650000X0.150000X-0.650000X-0.150000X0.650000X-0.150000X0*%
%ADD28R,2.410000X3.100000*%
%ADD29R,2.000000X4.600000*%
%ADD30O,2.000000X4.200000*%
%ADD31O,4.200000X2.000000*%
%ADD32RoundRect,0.150000X-0.587500X-0.150000X0.587500X-0.150000X0.587500X0.150000X-0.587500X0.150000X0*%
%ADD33RoundRect,0.250000X0.362500X1.425000X-0.362500X1.425000X-0.362500X-1.425000X0.362500X-1.425000X0*%
%ADD34RoundRect,0.250000X0.250000X0.475000X-0.250000X0.475000X-0.250000X-0.475000X0.250000X-0.475000X0*%
%ADD35RoundRect,0.150000X-0.150000X0.675000X-0.150000X-0.675000X0.150000X-0.675000X0.150000X0.675000X0*%
%ADD36R,1.600000X5.700000*%
%ADD37RoundRect,0.250001X0.799999X-0.799999X0.799999X0.799999X-0.799999X0.799999X-0.799999X-0.799999X0*%
%ADD38C,2.100000*%
%ADD39RoundRect,0.225000X-0.225000X-0.250000X0.225000X-0.250000X0.225000X0.250000X-0.225000X0.250000X0*%
%ADD40RoundRect,0.250000X-0.350000X0.850000X-0.350000X-0.850000X0.350000X-0.850000X0.350000X0.850000X0*%
%ADD41RoundRect,0.249997X-2.650003X2.950003X-2.650003X-2.950003X2.650003X-2.950003X2.650003X2.950003X0*%
%ADD42RoundRect,0.225000X-0.225000X-0.375000X0.225000X-0.375000X0.225000X0.375000X-0.225000X0.375000X0*%
%ADD43RoundRect,0.225000X0.225000X0.250000X-0.225000X0.250000X-0.225000X-0.250000X0.225000X-0.250000X0*%
%ADD44RoundRect,0.250000X0.850000X0.350000X-0.850000X0.350000X-0.850000X-0.350000X0.850000X-0.350000X0*%
%ADD45RoundRect,0.249997X2.950003X2.650003X-2.950003X2.650003X-2.950003X-2.650003X2.950003X-2.650003X0*%
%ADD46RoundRect,0.150000X0.150000X-0.675000X0.150000X0.675000X-0.150000X0.675000X-0.150000X-0.675000X0*%
%ADD47RoundRect,0.250001X-0.799999X0.799999X-0.799999X-0.799999X0.799999X-0.799999X0.799999X0.799999X0*%
G04 APERTURE END LIST*
%TO.C,JP1*%
G36*
X152900000Y-99807500D02*
G01*
X154500000Y-99807500D01*
X154500000Y-101307500D01*
X152900000Y-101307500D01*
X152900000Y-99807500D01*
G37*
%TD*%
D10*
%TO.C,R11*%
X157700000Y-99975000D03*
X157700000Y-101625000D03*
%TD*%
D11*
%TO.C,R8*%
X152375000Y-96100000D03*
X154025000Y-96100000D03*
%TD*%
D12*
%TO.C,C4*%
X154200000Y-107092500D03*
X154200000Y-108642500D03*
%TD*%
D13*
%TO.C,D6*%
X160350000Y-124142500D03*
X160350000Y-130942500D03*
%TD*%
D12*
%TO.C,C2*%
X157600000Y-107092500D03*
X157600000Y-108642500D03*
%TD*%
D11*
%TO.C,R1*%
X154300000Y-105142500D03*
X155950000Y-105142500D03*
%TD*%
D14*
%TO.C,R25*%
X129600000Y-111892500D03*
X129600000Y-110242500D03*
%TD*%
D11*
%TO.C,R13*%
X157575000Y-93767500D03*
X159225000Y-93767500D03*
%TD*%
D15*
%TO.C,R21*%
X133825000Y-109942500D03*
X132175000Y-109942500D03*
%TD*%
D16*
%TO.C,F1*%
X169087500Y-109342500D03*
X162312500Y-109342500D03*
%TD*%
D10*
%TO.C,R26*%
X128000000Y-113342500D03*
X128000000Y-114992500D03*
%TD*%
D17*
%TO.C,D4*%
X163100000Y-99000000D03*
X163100000Y-100575000D03*
%TD*%
D18*
%TO.C,Q3*%
X130550000Y-106467500D03*
X128650000Y-106467500D03*
X129600000Y-108342500D03*
%TD*%
D19*
%TO.C,TP11*%
X121560000Y-125742500D03*
X126640000Y-125742500D03*
%TD*%
D12*
%TO.C,C18*%
X138400000Y-118467500D03*
X138400000Y-120017500D03*
%TD*%
D20*
%TO.C,H1*%
X129702944Y-78445444D03*
X130405888Y-76748388D03*
X130405888Y-80142500D03*
X132102944Y-76045444D03*
D21*
X132102944Y-78445444D03*
D20*
X132102944Y-80845444D03*
X133800000Y-76748388D03*
X133800000Y-80142500D03*
X134502944Y-78445444D03*
%TD*%
D22*
%TO.C,U2*%
X153500000Y-91550000D03*
X154500000Y-91550000D03*
X155500000Y-91550000D03*
X156500000Y-91550000D03*
X157500000Y-91550000D03*
X157500000Y-86450000D03*
X156500000Y-86450000D03*
X155500000Y-86450000D03*
X154500000Y-86450000D03*
X153500000Y-86450000D03*
%TD*%
D15*
%TO.C,R3*%
X151325000Y-104400000D03*
X149675000Y-104400000D03*
%TD*%
%TO.C,R6*%
X163025000Y-116542500D03*
X161375000Y-116542500D03*
%TD*%
D17*
%TO.C,D3*%
X161300000Y-99000000D03*
X161300000Y-100575000D03*
%TD*%
D12*
%TO.C,C1*%
X159300000Y-107067500D03*
X159300000Y-108617500D03*
%TD*%
D23*
%TO.C,U4*%
X136405000Y-113267500D03*
X135135000Y-113267500D03*
X133865000Y-113267500D03*
X132595000Y-113267500D03*
X132595000Y-118217500D03*
X133865000Y-118217500D03*
X135135000Y-118217500D03*
X136405000Y-118217500D03*
%TD*%
D12*
%TO.C,C19*%
X129600000Y-113392500D03*
X129600000Y-114942500D03*
%TD*%
D24*
%TO.C,JP1*%
X152400000Y-100557500D03*
X153700000Y-100557500D03*
X155000000Y-100557500D03*
%TD*%
D25*
%TO.C,Q2*%
X155200000Y-128742500D03*
X155200000Y-126442500D03*
D26*
X148900000Y-126442500D03*
D25*
X155200000Y-124142500D03*
%TD*%
D13*
%TO.C,D1*%
X146000000Y-113842500D03*
X146000000Y-120642500D03*
%TD*%
D27*
%TO.C,U1*%
X151295000Y-109947500D03*
X151295000Y-108677500D03*
X151295000Y-107407500D03*
X151295000Y-106137500D03*
X145995000Y-106137500D03*
X145995000Y-107407500D03*
X145995000Y-108677500D03*
X145995000Y-109947500D03*
D28*
X148645000Y-108042500D03*
%TD*%
D29*
%TO.C,J1*%
X163450000Y-87692500D03*
D30*
X169750000Y-87692500D03*
D31*
X166350000Y-82892500D03*
%TD*%
D32*
%TO.C,U3*%
X134462500Y-104650000D03*
X134462500Y-106550000D03*
X136337500Y-105600000D03*
%TD*%
D11*
%TO.C,R10*%
X156075000Y-98500000D03*
X157725000Y-98500000D03*
%TD*%
D33*
%TO.C,R14*%
X150125000Y-98242500D03*
X144200000Y-98242500D03*
%TD*%
D12*
%TO.C,C6*%
X143100000Y-108867500D03*
X143100000Y-110417500D03*
%TD*%
D11*
%TO.C,R19*%
X135050000Y-120942500D03*
X136700000Y-120942500D03*
%TD*%
D34*
%TO.C,C11*%
X150900000Y-84242500D03*
X149000000Y-84242500D03*
%TD*%
D15*
%TO.C,R24*%
X130425000Y-104567500D03*
X128775000Y-104567500D03*
%TD*%
D10*
%TO.C,R12*%
X159300000Y-99975000D03*
X159300000Y-101625000D03*
%TD*%
D35*
%TO.C,Q4*%
X125735000Y-115917500D03*
X124465000Y-115917500D03*
X123195000Y-115917500D03*
X121925000Y-115917500D03*
X121925000Y-121167500D03*
X123195000Y-121167500D03*
X124465000Y-121167500D03*
X125735000Y-121167500D03*
%TD*%
D34*
%TO.C,C8*%
X159600000Y-118762500D03*
X157700000Y-118762500D03*
%TD*%
D19*
%TO.C,TP10*%
X121560000Y-81742500D03*
X126640000Y-81742500D03*
%TD*%
D36*
%TO.C,L2*%
X145200000Y-92242500D03*
X149900000Y-92242500D03*
%TD*%
D10*
%TO.C,R22*%
X138400000Y-111617500D03*
X138400000Y-113267500D03*
%TD*%
D11*
%TO.C,R17*%
X128850000Y-120942500D03*
X130500000Y-120942500D03*
%TD*%
D37*
%TO.C,J2*%
X172842500Y-101587500D03*
D38*
X172842500Y-96507500D03*
%TD*%
D12*
%TO.C,C15*%
X160800000Y-93792500D03*
X160800000Y-95342500D03*
%TD*%
D36*
%TO.C,L1*%
X150750000Y-116542500D03*
X155450000Y-116542500D03*
%TD*%
D10*
%TO.C,R4*%
X143100000Y-105717500D03*
X143100000Y-107367500D03*
%TD*%
D34*
%TO.C,C17*%
X142012500Y-99042500D03*
X140112500Y-99042500D03*
%TD*%
D11*
%TO.C,R15*%
X151575000Y-131042500D03*
X153225000Y-131042500D03*
%TD*%
D39*
%TO.C,C13*%
X154325000Y-84000000D03*
X155875000Y-84000000D03*
%TD*%
D20*
%TO.C,H3*%
X129700000Y-129042500D03*
X130402944Y-127345444D03*
X130402944Y-130739556D03*
X132100000Y-126642500D03*
D21*
X132100000Y-129042500D03*
D20*
X132100000Y-131442500D03*
X133797056Y-127345444D03*
X133797056Y-130739556D03*
X134500000Y-129042500D03*
%TD*%
D16*
%TO.C,F2*%
X156287500Y-79242500D03*
X149512500Y-79242500D03*
%TD*%
D37*
%TO.C,J4*%
X172842500Y-122142500D03*
D38*
X172842500Y-117062500D03*
%TD*%
D20*
%TO.C,H4*%
X171600000Y-129042500D03*
X172302944Y-127345444D03*
X172302944Y-130739556D03*
X174000000Y-126642500D03*
D21*
X174000000Y-129042500D03*
D20*
X174000000Y-131442500D03*
X175697056Y-127345444D03*
X175697056Y-130739556D03*
X176400000Y-129042500D03*
%TD*%
D40*
%TO.C,D5*%
X142257500Y-85842500D03*
D41*
X139977500Y-92142500D03*
D40*
X137697500Y-85842500D03*
%TD*%
D11*
%TO.C,R5*%
X161375000Y-118242500D03*
X163025000Y-118242500D03*
%TD*%
%TO.C,R7*%
X161375000Y-114842500D03*
X163025000Y-114842500D03*
%TD*%
D34*
%TO.C,C12*%
X150900000Y-86442500D03*
X149000000Y-86442500D03*
%TD*%
D11*
%TO.C,R2*%
X157500000Y-105142500D03*
X159150000Y-105142500D03*
%TD*%
%TO.C,R9*%
X152975000Y-98500000D03*
X154625000Y-98500000D03*
%TD*%
D15*
%TO.C,R20*%
X136925000Y-109942500D03*
X135275000Y-109942500D03*
%TD*%
D42*
%TO.C,D2*%
X155750000Y-96100000D03*
X159050000Y-96100000D03*
%TD*%
D12*
%TO.C,C7*%
X141500000Y-107267500D03*
X141500000Y-108817500D03*
%TD*%
D15*
%TO.C,R16*%
X136925000Y-108242500D03*
X135275000Y-108242500D03*
%TD*%
D12*
%TO.C,C3*%
X155900000Y-107092500D03*
X155900000Y-108642500D03*
%TD*%
D39*
%TO.C,C14*%
X152425000Y-94500000D03*
X153975000Y-94500000D03*
%TD*%
D20*
%TO.C,H2*%
X171600000Y-78442500D03*
X172302944Y-76745444D03*
X172302944Y-80139556D03*
X174000000Y-76042500D03*
D21*
X174000000Y-78442500D03*
D20*
X174000000Y-80842500D03*
X175697056Y-76745444D03*
X175697056Y-80139556D03*
X176400000Y-78442500D03*
%TD*%
D43*
%TO.C,C16*%
X142037500Y-97042500D03*
X140487500Y-97042500D03*
%TD*%
D34*
%TO.C,C10*%
X159600000Y-114342500D03*
X157700000Y-114342500D03*
%TD*%
D14*
%TO.C,R23*%
X132200000Y-107792500D03*
X132200000Y-106142500D03*
%TD*%
D34*
%TO.C,C9*%
X159600000Y-116562500D03*
X157700000Y-116562500D03*
%TD*%
D16*
%TO.C,F3*%
X128687500Y-99842500D03*
X121912500Y-99842500D03*
%TD*%
D44*
%TO.C,Q1*%
X146357500Y-82050000D03*
D45*
X140057500Y-79770000D03*
D44*
X146357500Y-77490000D03*
%TD*%
D43*
%TO.C,C5*%
X151675000Y-111800000D03*
X150125000Y-111800000D03*
%TD*%
D46*
%TO.C,Q5*%
X121960000Y-111542500D03*
X123230000Y-111542500D03*
X124500000Y-111542500D03*
X125770000Y-111542500D03*
X125770000Y-106292500D03*
X124500000Y-106292500D03*
X123230000Y-106292500D03*
X121960000Y-106292500D03*
%TD*%
D47*
%TO.C,J3*%
X124557500Y-88197500D03*
D38*
X124557500Y-93277500D03*
%TD*%
D11*
%TO.C,R18*%
X131950000Y-120942500D03*
X133600000Y-120942500D03*
%TD*%
M02*
