M48
; DRILL file {KiCad 9.0.3} date 2025-08-25T20:13:09-0300
; FORMAT={-:-/ absolute / inch / decimal}
; #@! TF.CreationDate,2025-08-25T20:13:09-03:00
; #@! TF.GenerationSoftware,Kicad,Pcbnew,9.0.3
; #@! TF.FileFunction,Plated,1,2,PTH
FMAT,2
INCH
; #@! TA.AperFunction,Plated,PTH,ComponentDrill
T1C0.0079
; #@! TA.AperFunction,Plated,PTH,ViaDrill
T2C0.0118
; #@! TA.AperFunction,Plated,PTH,ComponentDrill
T3C0.0197
; #@! TA.AperFunction,Plated,PTH,ComponentDrill
T4C0.0394
; #@! TA.AperFunction,Plated,PTH,ComponentDrill
T5C0.0433
; #@! TA.AperFunction,Plated,PTH,ComponentDrill
T6C0.0512
; #@! TA.AperFunction,Plated,PTH,ComponentDrill
T7C0.1260
%
G90
G05
T1
X5.8146Y-4.2025
X5.8146Y-4.2536
X5.8146Y-4.3048
X5.8898Y-4.2025
X5.8898Y-4.2536
X5.8898Y-4.3048
T2
X4.7717Y-4.563
X4.7874Y-3.0194
X4.7874Y-3.0981
X4.7874Y-3.4918
X4.7874Y-3.5706
X4.7874Y-3.6493
X4.7874Y-3.7281
X4.7874Y-4.2792
X4.7874Y-4.6729
X4.7874Y-5.0666
X4.7874Y-5.1454
X4.8661Y-3.0194
X4.8661Y-3.0981
X4.8661Y-3.5706
X4.8661Y-4.2792
X4.8661Y-4.6729
X4.8661Y-5.0666
X4.8661Y-5.1454
X4.9134Y-4.0079
X4.9449Y-3.0194
X4.9449Y-3.0981
X4.9449Y-3.8068
X4.9449Y-3.8855
X4.9449Y-3.9643
X4.9449Y-4.2792
X4.9449Y-4.6729
X4.9449Y-5.0666
X4.9449Y-5.1454
X4.9781Y-4.4623
X5.0236Y-3.0194
X5.0236Y-3.0981
X5.0236Y-4.2792
X5.0236Y-4.358
X5.0236Y-4.5942
X5.0236Y-4.6729
X5.0236Y-5.0666
X5.0236Y-5.1454
X5.1024Y-4.5942
X5.1024Y-4.6729
X5.1811Y-3.0981
X5.1811Y-3.2556
X5.1811Y-3.3344
X5.1811Y-3.4131
X5.1811Y-3.4918
X5.1811Y-3.5706
X5.1811Y-3.6493
X5.1811Y-3.7281
X5.1811Y-3.8068
X5.1811Y-3.8855
X5.1811Y-3.9643
X5.1811Y-4.043
X5.1811Y-5.0666
X5.2362Y-4.5551
X5.252Y-4.2441
X5.2598Y-3.2556
X5.2598Y-3.3344
X5.2598Y-3.4131
X5.2598Y-3.4918
X5.2598Y-3.5706
X5.2598Y-3.6493
X5.2598Y-3.7281
X5.2598Y-3.8068
X5.2598Y-3.8855
X5.2598Y-3.9643
X5.2598Y-4.043
X5.2953Y-4.5551
X5.3386Y-3.2556
X5.3386Y-3.3344
X5.3386Y-3.4131
X5.3386Y-3.4918
X5.3386Y-3.5706
X5.3386Y-3.6493
X5.3386Y-3.7281
X5.3386Y-3.8068
X5.3386Y-3.8855
X5.3386Y-3.9643
X5.3386Y-4.043
X5.4055Y-4.7205
X5.4094Y-4.4594
X5.4173Y-3.8068
X5.4173Y-3.8855
X5.4173Y-3.9643
X5.4173Y-4.043
X5.4173Y-4.5155
X5.4173Y-4.5942
X5.4173Y-5.0666
X5.4173Y-5.1454
X5.4213Y-4.7717
X5.4961Y-3.4131
X5.4961Y-3.4567
X5.4961Y-3.9643
X5.4961Y-5.1454
X5.5394Y-3.4567
X5.5748Y-4.358
X5.5748Y-5.1454
X5.6299Y-4.4488
X5.6299Y-4.5157
X5.6339Y-3.815
X5.6535Y-4.5942
X5.6535Y-5.1454
X5.7008Y-3.1575
X5.7047Y-4.6575
X5.7323Y-3.3344
X5.7323Y-3.4131
X5.7323Y-4.043
X5.7323Y-4.7517
X5.7323Y-5.1454
X5.7441Y-4.8386
X5.748Y-4.1417
X5.752Y-3.9016
X5.7992Y-3.5669
X5.7992Y-3.6496
X5.7992Y-3.7244
X5.7992Y-3.9016
X5.8071Y-3.2717
X5.811Y-3.3344
X5.811Y-3.4131
X5.811Y-3.4918
X5.811Y-3.9643
X5.811Y-4.043
X5.811Y-5.1454
X5.8346Y-4.7559
X5.8522Y-4.2536
X5.8543Y-4.185
X5.8543Y-4.3228
X5.8898Y-4.043
X5.8898Y-4.7517
X5.8898Y-4.8304
X5.8898Y-5.1454
X5.9173Y-3.7756
X5.9685Y-3.0194
X5.9685Y-4.7517
X5.9685Y-4.8304
X5.9882Y-3.0984
X5.9882Y-3.1772
X6.0433Y-3.4488
X6.0472Y-3.0194
X6.0472Y-3.0981
X6.0472Y-3.1769
X6.0472Y-4.358
X6.0472Y-4.4367
X6.0472Y-4.5155
X6.0472Y-4.5942
X6.0472Y-4.6729
X6.0472Y-4.7517
X6.0512Y-4.0039
X6.0984Y-3.7835
X6.122Y-3.3583
X6.126Y-3.7281
X6.126Y-4.358
X6.126Y-4.4367
X6.1496Y-3.9331
X6.1614Y-3.3583
X6.1693Y-4.4961
X6.1693Y-4.5236
X6.1693Y-4.5512
X6.1693Y-4.5787
X6.1693Y-4.6063
X6.1693Y-4.6339
X6.1693Y-4.6614
X6.1693Y-4.689
X6.1693Y-5.0591
X6.1693Y-5.0906
X6.1693Y-5.122
X6.1693Y-5.1535
X6.1693Y-5.185
X6.2008Y-3.3583
X6.2008Y-5.0591
X6.2008Y-5.0906
X6.2008Y-5.122
X6.2008Y-5.1535
X6.2008Y-5.185
X6.2047Y-4.4367
X6.2835Y-3.0194
X6.2835Y-3.0981
X6.2835Y-3.4918
X6.2835Y-4.7517
X6.2835Y-4.9879
X6.3533Y-4.5512
X6.3543Y-4.6969
X6.3622Y-3.0194
X6.3622Y-3.0981
X6.3622Y-3.1769
X6.3622Y-4.043
X6.3622Y-4.1218
X6.3622Y-4.9879
X6.4409Y-3.0194
X6.4409Y-3.0981
X6.4409Y-3.1769
X6.4409Y-3.6493
X6.4409Y-3.7281
X6.4409Y-4.043
X6.4409Y-4.1218
X6.4409Y-4.7517
X6.4409Y-4.9879
X6.4409Y-5.0666
X6.4409Y-5.1454
X6.5197Y-3.0194
X6.5197Y-3.0981
X6.5197Y-3.1769
X6.5197Y-3.7281
X6.5197Y-3.8068
X6.5197Y-3.8855
X6.5197Y-3.9643
X6.5197Y-4.043
X6.5197Y-4.1218
X6.5197Y-4.2005
X6.5197Y-4.2792
X6.5197Y-4.358
X6.5197Y-4.4367
X6.5197Y-4.5155
X6.5197Y-4.5942
X6.5197Y-4.6729
X6.5197Y-4.7517
X6.5197Y-4.9879
X6.5197Y-5.0666
X6.5197Y-5.1454
X6.5984Y-3.0194
X6.5984Y-3.0981
X6.5984Y-3.1769
X6.5984Y-3.4131
X6.5984Y-3.4918
X6.5984Y-4.5155
X6.5984Y-4.5942
X6.5984Y-4.6729
X6.5984Y-4.7517
X6.5984Y-4.9879
X6.5984Y-5.0666
X6.5984Y-5.1454
X6.6772Y-3.0194
X6.6772Y-3.0981
X6.6772Y-3.1769
X6.6772Y-3.2556
X6.6772Y-3.3344
X6.6772Y-3.5706
X6.6772Y-4.5155
X6.6772Y-4.5942
X6.6772Y-4.6729
X6.6772Y-4.7517
X6.6772Y-4.9879
X6.6772Y-5.0666
X6.6772Y-5.1454
X6.7559Y-3.2556
X6.7559Y-3.3344
X6.7559Y-3.4131
X6.7559Y-3.4918
X6.7559Y-3.5706
X6.7559Y-3.6493
X6.7559Y-4.2792
X6.7559Y-4.358
X6.7559Y-4.4367
X6.7559Y-4.5155
X6.8346Y-3.0981
X6.8346Y-3.2556
X6.8346Y-3.3344
X6.8346Y-3.4131
X6.8346Y-3.4918
X6.8346Y-3.5706
X6.8346Y-3.6493
X6.8346Y-3.8855
X6.8346Y-4.2005
X6.8346Y-4.2792
X6.8346Y-4.358
X6.8346Y-4.4367
X6.8346Y-4.5155
X6.8346Y-5.0666
X6.9134Y-3.2556
X6.9134Y-3.3344
X6.9134Y-3.4131
X6.9134Y-3.4918
X6.9134Y-3.5706
X6.9134Y-3.6493
X6.9134Y-3.7281
X6.9134Y-3.8068
X6.9134Y-3.8855
X6.9134Y-3.9643
X6.9134Y-4.043
X6.9134Y-4.1218
X6.9134Y-4.2005
X6.9134Y-4.2792
X6.9134Y-4.358
X6.9134Y-4.4367
X6.9134Y-4.5155
X6.9134Y-4.5942
X6.9134Y-4.6729
X6.9134Y-4.7517
X6.9134Y-4.8304
X6.9134Y-4.9092
T3
X5.1063Y-5.0804
X5.1064Y-3.0884
X5.134Y-5.0136
X5.134Y-5.1472
X5.1341Y-3.0216
X5.1341Y-3.1552
X5.2008Y-4.9859
X5.2008Y-5.1749
X5.2009Y-2.9939
X5.2009Y-3.1829
X5.2676Y-5.0136
X5.2676Y-5.1472
X5.2677Y-3.0216
X5.2677Y-3.1552
X5.2953Y-5.0804
X5.2954Y-3.0884
X6.7559Y-3.0883
X6.7559Y-5.0804
X6.7836Y-3.0215
X6.7836Y-3.1551
X6.7836Y-5.0136
X6.7836Y-5.1472
X6.8504Y-2.9938
X6.8504Y-3.1828
X6.8504Y-4.9859
X6.8504Y-5.1749
X6.9172Y-3.0215
X6.9172Y-3.1551
X6.9172Y-5.0136
X6.9172Y-5.1472
X6.9449Y-3.0883
X6.9449Y-5.0804
T5
X4.9038Y-3.4723
X4.9038Y-3.6723
X6.8048Y-3.7995
X6.8048Y-3.9995
X6.8048Y-4.6088
X6.8048Y-4.8088
T6
X4.7858Y-3.2182
X4.7858Y-4.9505
X4.9858Y-3.2182
X4.9858Y-4.9505
T7
X5.2008Y-5.0804
X5.2009Y-3.0884
X6.8504Y-3.0883
X6.8504Y-5.0804
T4
G00X6.435Y-3.5036
M15
G01X6.435Y-3.4013
M16
G05
G00X6.5059Y-3.2635
M15
G01X6.5925Y-3.2635
M16
G05
G00X6.6831Y-3.4958
M15
G01X6.6831Y-3.4092
M16
G05
M30
